<?xml version="1.0" encoding="UTF-8"?>
<!--Generator: Apple Native CoreSVG 326-->
<!DOCTYPE svg
PUBLIC "-//W3C//DTD SVG 1.1//EN"
       "http://www.w3.org/Graphics/SVG/1.1/DTD/svg11.dtd">
<svg version="1.1" xmlns="http://www.w3.org/2000/svg" xmlns:xlink="http://www.w3.org/1999/xlink" viewBox="0 0 18.2988 17.9385">
 <g>
  <rect height="17.9385" opacity="0" width="18.2988" x="0" y="0"/>
  <path d="M8.96484 17.9297C13.9131 17.9297 17.9297 13.9043 17.9297 8.96484C17.9297 4.0166 13.9131 0 8.96484 0C4.02539 0 0 4.0166 0 8.96484C0 13.9043 4.02539 17.9297 8.96484 17.9297Z" fill="#007aff"/>
  <path d="M6.23145 13.1221C5.80957 13.1221 5.56348 12.8408 5.56348 12.3926L5.56348 5.40527C5.56348 4.93945 5.81836 4.64062 6.2666 4.64062C6.56543 4.64062 6.76758 4.75488 6.99609 5.08008L10.9336 10.7314L11.0039 10.7314L11.0039 5.37012C11.0039 4.93066 11.25 4.64062 11.6719 4.64062C12.1113 4.64062 12.3662 4.91309 12.3662 5.37012L12.3662 12.3662C12.3662 12.8496 12.0938 13.1221 11.6455 13.1221C11.3467 13.1221 11.1621 13.0166 10.9248 12.6826L6.97852 7.12793L6.91699 7.12793L6.91699 12.3926C6.91699 12.8584 6.66211 13.1221 6.23145 13.1221Z" fill="white"/>
 </g>
</svg>
